Coordinates
version=1
nRows=17
nColumns=36
inDegrees=yes

Units are S.I. units (second, meters, Newtons, ...)
If the header above contains a line with 'inDegrees', this indicates whether rotational values are in degrees (yes) or radians (no).

endheader
time	pelvis_tilt	pelvis_list	pelvis_rotation	pelvis_tx	pelvis_ty	pelvis_tz	hip_flexion_r	hip_adduction_r	hip_rotation_r	knee_angle_r	knee_angle_r_beta	ankle_angle_r	subtalar_angle_r	mtp_angle_r	hip_flexion_l	hip_adduction_l	hip_rotation_l	knee_angle_l	knee_angle_l_beta	ankle_angle_l	subtalar_angle_l	mtp_angle_l	lumbar_extension	lumbar_bending	lumbar_rotation	arm_flex_r	arm_add_r	arm_rot_r	elbow_flex_r	pro_sup_r	arm_flex_l	arm_add_l	arm_rot_l	elbow_flex_l	pro_sup_l
      4.19166670	      0.39028960	      0.28222813	      0.14012264	      0.55302429	      0.96706942	     -0.02925920	     -0.40525431	     -2.81731318	     -0.49696999	      1.35172713	      0.02359209	      4.27112568	    -14.58663481	     -7.49999987	      2.03855377	     -2.18174664	     -1.90362947	      2.04242839	      0.03564710	      1.97074711	    -10.39933856	     -7.49999987	     -4.39154201	      2.42155102	     -1.22735560	    177.65103163	   -160.74840324	    186.63393347	     47.55240568	     67.16426572	    177.12778308	   -160.49637101	    196.68677596	     42.55386902	     65.34703478
      4.19583330	      0.37217162	      0.27953260	      0.10348014	      0.54996087	      0.96902296	     -0.03104784	     -0.37570796	     -2.72649990	     -0.63084466	      1.33737428	      0.02334158	      4.24242399	    -14.64547097	     -7.49999987	      2.02299410	     -2.23050456	     -1.93373189	      2.04616606	      0.03571233	      1.95164008	    -10.39183591	     -7.49999987	     -4.43741089	      2.40312639	     -1.10666279	    177.61575038	   -160.80076735	    186.64873074	     47.52350186	     67.18432109	    176.90007008	   -160.49352638	    196.73240136	     42.45262835	     65.35751226
      4.20000000	      0.38981528	      0.27072961	      0.05288301	      0.54997849	      0.96181380	     -0.02364711	     -0.36080659	     -2.57111132	     -0.54929615	      1.29911860	      0.02267390	      4.24141398	    -14.95147431	     -7.49999987	      1.98748646	     -2.37511771	     -2.15465809	      2.07690930	      0.03624891	      1.86343232	    -10.49513992	     -7.49999987	     -4.47316629	      2.34994016	     -1.07433341	    177.53703147	   -161.04497321	    186.41593978	     47.65956660	     66.90064120	    176.55282944	   -160.26521409	    196.62607110	     42.49436416	     65.06869618
      4.20416670	      0.34952693	      0.25089966	      0.10101059	      0.54632622	      0.96692223	     -0.02728710	     -0.27962342	     -2.46837516	     -0.59411492	      1.30712158	      0.02281358	      4.29036403	    -14.97548860	     -7.49999987	      2.14280308	     -2.50177003	     -2.20491733	      2.15210390	      0.03756130	      1.72263603	    -10.42367917	     -7.49999987	     -4.57589678	      2.30758148	     -1.03360827	    177.58215043	   -161.15613386	    186.48735594	     47.56030425	     66.96475289	    176.53412253	   -160.16137750	    196.71488650	     42.32444549	     65.10055697
      4.20833330	      0.23382661	      0.25456666	      0.11543146	      0.55096208	      0.96121413	     -0.02339890	     -0.11136356	     -2.36835562	     -0.42787014	      1.32780347	      0.02317454	      4.50694661	    -15.02657133	     -7.49999987	      2.37824904	     -2.65912464	     -2.38894783	      2.34716019	      0.04096567	      1.75759622	    -10.33320965	     -7.49999987	     -4.25488436	      2.21789764	     -0.98622083	    177.74443385	   -161.21935736	    187.07637998	     46.81763045	     67.61634690	    176.61026429	   -159.84065978	    197.85328931	     41.53244020	     65.27110565
      4.21250000	      0.22922939	      0.22495399	      0.15254326	      0.54822558	      0.96547575	     -0.02577066	     -0.07656658	     -2.29765749	     -0.40262864	      1.35470974	      0.02364415	      4.51243162	    -14.99694604	     -7.49999987	      2.47158718	     -2.77313414	     -2.39488407	      2.36569942	      0.04128924	      1.68440270	    -10.30198825	     -7.49999987	     -4.36199397	      2.20493935	     -0.95233737	    177.69727150	   -161.27588520	    187.09240417	     46.82062781	     67.64088657	    176.51028753	   -159.79390760	    197.87354871	     41.47545452	     65.27626658
      4.21666670	      0.19396939	      0.22527218	      0.20000390	      0.54693984	      0.96687294	     -0.02687467	      0.01677150	     -2.24923399	     -0.37333583	      1.43834097	      0.02510379	      4.58721097	    -14.81038033	     -7.49999987	      2.65762587	     -2.84680937	     -2.51401315	      2.48752004	      0.04341541	      1.54181568	    -10.17372645	     -7.49999987	     -4.32612888	      2.17938356	     -0.91191357	    177.64060093	   -161.41010678	    186.80614502	     46.84796837	     68.60600179	    176.57296841	   -159.64903008	    198.51971034	     41.10812557	     65.11271472
      4.22083330	      0.20742069	      0.21856129	      0.28326094	      0.54835165	      0.96707187	     -0.02695023	      0.03124806	     -2.22860279	     -0.48563381	      1.52011922	      0.02653109	      4.55306133	    -14.69803870	     -7.49999987	      2.72852385	     -2.87184255	     -2.54272233	      2.52800950	      0.04412209	      1.29401960	    -10.24579868	     -7.49999987	     -4.38898147	      2.20753029	     -0.94430613	    177.67417596	   -161.46176532	    186.84158971	     46.74228074	     68.59180723	    176.48789745	   -159.68319461	    198.64254330	     40.82975831	     64.90963746
      4.22500000	      0.25095693	      0.19855538	      0.32697046	      0.54927227	      0.96472949	     -0.02638470	      0.03822771	     -2.22049394	     -0.50900940	      1.60910054	      0.02808410	      4.48813884	    -14.75495967	     -7.49999987	      2.74824993	     -2.90832943	     -2.62417452	      2.59741350	      0.04533342	      1.27592541	    -10.19981180	     -7.49999987	     -4.47338961	      2.22657838	     -0.95022783	    177.66105950	   -161.49205754	    186.79596473	     46.76207475	     68.60761054	    176.34668184	   -159.65659028	    198.73099406	     40.67002073	     64.76218844
      4.22916670	      0.23871339	      0.20023776	      0.35785895	      0.54885959	      0.96547598	     -0.02645509	      0.12304427	     -2.24069063	     -0.47824651	      1.74122753	      0.03039015	      4.42504272	    -14.86423834	     -7.49999987	      2.81917397	     -2.90368742	     -2.70319332	      2.64361674	      0.04613982	      1.30298550	    -10.08418995	     -7.49999987	     -4.46976040	      2.22862134	     -0.91656318	    177.68033582	   -161.56831318	    186.62707521	     46.56281075	     68.80664570	    176.26713739	   -159.74418167	    198.82137884	     40.25198108	     64.68102170
      4.23333330	      0.26741388	      0.20393897	      0.44879663	      0.55099923	      0.96577177	     -0.03065824	      0.07797091	     -2.33411891	     -0.48765585	      1.80242336	      0.03145822	      4.39157875	    -14.85876071	     -7.49999987	      2.79044679	     -2.85793637	     -2.74876534	      2.67042757	      0.04660775	      1.29167314	    -10.09302237	     -7.49999987	     -4.51459395	      2.25945184	     -0.90501648	    177.61036410	   -161.53444876	    186.61868303	     46.54104630	     68.81428836	    176.11374958	   -159.79139226	    198.85504039	     40.20370077	     64.68349569
      4.23750000	      0.37310328	      0.19738386	      0.42176543	      0.54755201	      0.96447358	     -0.02609078	      0.10127363	     -2.35249082	     -0.58750502	      2.02198770	      0.03529034	      4.38846934	    -14.93749023	     -7.49999987	      2.70825107	     -2.85502397	     -2.95106132	      2.75480888	      0.04808049	      1.32601343	    -10.19315498	     -7.49999987	     -4.66097687	      2.29041438	     -0.97214717	    177.64582207	   -161.51801098	    186.57461214	     46.58942139	     68.85165867	    175.84214102	   -159.83556360	    198.92894221	     40.01200398	     64.68770333
      4.24166670	      0.41495029	      0.21953050	      0.45862017	      0.55047494	      0.96607770	     -0.02998887	      0.09329279	     -2.45141943	     -0.63034936	      2.12420206	      0.03707432	      4.35738847	    -14.96191873	     -7.49999987	      2.67451487	     -2.79343982	     -2.94728270	      2.81823759	      0.04918752	      1.27118082	    -10.15759642	     -7.49999987	     -4.75554726	      2.28456121	     -0.98555044	    177.61033717	   -161.50258547	    186.55542600	     46.58277363	     68.86879153	    175.60413353	   -159.94436787	    198.99735775	     39.88180154	     64.68913375
      4.24583330	      0.44981680	      0.20171869	      0.45837242	      0.54748294	      0.96539184	     -0.02729529	      0.15199890	     -2.44189449	     -0.69191636	      2.26912312	      0.03960367	      4.37100157	    -15.02180146	     -7.49999987	      2.66914832	     -2.79934573	     -3.01295321	      2.86655132	      0.05003076	      1.28929715	    -10.18495455	     -7.49999987	     -4.88015553	      2.29230615	     -1.00415409	    177.66604898	   -161.54696490	    186.53692919	     46.61986061	     68.89022672	    175.40849650	   -159.94433285	    199.04001367	     39.70361573	     64.68585477
      4.25000000	      0.45854417	      0.17542146	      0.45873846	      0.54592916	      0.96673850	     -0.02554217	      0.37052014	     -2.37988580	     -0.54272790	      2.52009264	      0.04398391	      4.46855757	    -15.11872762	     -7.49999987	      2.79247160	     -2.85516322	     -3.08372982	      2.97912404	      0.05199552	      1.29107489	    -10.19972630	     -7.49999987	     -4.93957446	      2.32389854	     -1.14508605	    178.02189646	   -161.65187242	    186.77708206	     46.49241706	     68.53643477	    175.42928197	   -160.08659070	    199.12361964	     38.87840835	     64.17699724
      4.25416670	      0.49180659	      0.15919735	      0.58927074	      0.54751146	      0.96578916	     -0.02354819	      0.37547424	     -2.29510940	     -0.68205582	      2.54177580	      0.04436236	      4.47730423	    -14.92490306	     -7.49999987	      2.85411693	     -2.94295826	     -3.00416192	      3.09424132	      0.05400470	      1.25057682	    -10.00041841	     -7.49999987	     -4.99369342	      2.26506299	     -1.24304333	    178.09432101	   -161.81426550	    186.89189739	     46.45496840	     68.18364790	    175.25053287	   -160.00412270	    199.24061920	     38.73962822	     63.74815652
      4.25833330	      0.54309863	      0.12160720	      0.54358553	      0.54715303	      0.96486310	     -0.02333858	      0.42912541	     -2.18571542	     -0.50864847	      2.66918548	      0.04658608	      4.53578672	    -14.95022127	     -7.49999987	      2.85238056	     -3.06072810	     -3.17929996	      3.12200994	      0.05448935	      1.34393718	     -9.84627839	     -7.49999987	     -5.19204500	      2.24327196	     -1.09485601	    178.01634973	   -161.97964530	    186.45728379	     46.72190465	     67.99161062	    174.98142975	   -160.02412387	    198.70422107	     38.98112593	     63.56721150
